<svg width="187" height="40" viewBox="0 0 187 40" fill="none" xmlns="http://www.w3.org/2000/svg">
<path d="M119.225 13.528C120.857 13.528 122.169 14.032 123.161 15.04C124.169 16.032 124.673 17.424 124.673 19.216V27.016H121.313V19.672C121.313 18.632 121.049 17.84 120.521 17.296C119.993 16.736 119.273 16.456 118.361 16.456C117.449 16.456 116.721 16.736 116.177 17.296C115.649 17.84 115.385 18.632 115.385 19.672V27.016H112.025V19.672C112.025 18.632 111.761 17.84 111.233 17.296C110.705 16.736 109.985 16.456 109.073 16.456C108.145 16.456 107.409 16.736 106.865 17.296C106.337 17.84 106.073 18.632 106.073 19.672V27.016H102.713V13.72H106.073V15.328C106.505 14.768 107.057 14.328 107.729 14.008C108.417 13.688 109.169 13.528 109.985 13.528C111.025 13.528 111.953 13.752 112.769 14.2C113.585 14.632 114.217 15.256 114.665 16.072C115.097 15.304 115.721 14.688 116.537 14.224C117.369 13.76 118.265 13.528 119.225 13.528Z" fill="white"/>
<path d="M133.766 27.232C132.486 27.232 131.334 26.952 130.31 26.392C129.286 25.816 128.478 25.008 127.886 23.968C127.31 22.928 127.022 21.728 127.022 20.368C127.022 19.008 127.318 17.808 127.91 16.768C128.518 15.728 129.342 14.928 130.382 14.368C131.422 13.792 132.582 13.504 133.862 13.504C135.142 13.504 136.302 13.792 137.342 14.368C138.382 14.928 139.198 15.728 139.79 16.768C140.398 17.808 140.702 19.008 140.702 20.368C140.702 21.728 140.39 22.928 139.766 23.968C139.158 25.008 138.326 25.816 137.27 26.392C136.23 26.952 135.062 27.232 133.766 27.232ZM133.766 24.304C134.374 24.304 134.942 24.16 135.47 23.872C136.014 23.568 136.446 23.12 136.766 22.528C137.086 21.936 137.246 21.216 137.246 20.368C137.246 19.104 136.91 18.136 136.238 17.464C135.582 16.776 134.774 16.432 133.814 16.432C132.854 16.432 132.046 16.776 131.39 17.464C130.75 18.136 130.43 19.104 130.43 20.368C130.43 21.632 130.742 22.608 131.366 23.296C132.006 23.968 132.806 24.304 133.766 24.304Z" fill="white"/>
<path d="M150.534 13.528C152.118 13.528 153.398 14.032 154.374 15.04C155.35 16.032 155.838 17.424 155.838 19.216V27.016H152.478V19.672C152.478 18.616 152.214 17.808 151.686 17.248C151.158 16.672 150.438 16.384 149.526 16.384C148.598 16.384 147.862 16.672 147.318 17.248C146.79 17.808 146.526 18.616 146.526 19.672V27.016H143.166V13.72H146.526V15.376C146.974 14.8 147.542 14.352 148.23 14.032C148.934 13.696 149.702 13.528 150.534 13.528Z" fill="white"/>
<path d="M171.393 20.08C171.393 20.56 171.361 20.992 171.297 21.376H161.577C161.657 22.336 161.993 23.088 162.585 23.632C163.177 24.176 163.905 24.448 164.769 24.448C166.017 24.448 166.905 23.912 167.433 22.84H171.057C170.673 24.12 169.937 25.176 168.849 26.008C167.761 26.824 166.425 27.232 164.841 27.232C163.561 27.232 162.409 26.952 161.385 26.392C160.377 25.816 159.585 25.008 159.009 23.968C158.449 22.928 158.169 21.728 158.169 20.368C158.169 18.992 158.449 17.784 159.009 16.744C159.569 15.704 160.353 14.904 161.361 14.344C162.369 13.784 163.529 13.504 164.841 13.504C166.105 13.504 167.233 13.776 168.225 14.32C169.233 14.864 170.009 15.64 170.553 16.648C171.113 17.64 171.393 18.784 171.393 20.08ZM167.913 19.12C167.897 18.256 167.585 17.568 166.977 17.056C166.369 16.528 165.625 16.264 164.745 16.264C163.913 16.264 163.209 16.52 162.633 17.032C162.073 17.528 161.729 18.224 161.601 19.12H167.913Z" fill="white"/>
<path d="M186.566 13.72L178.334 33.304H174.758L177.638 26.68L172.31 13.72H176.078L179.51 23.008L182.99 13.72H186.566Z" fill="white"/>
<path d="M92.756 13.528L84.524 33.112H80.948L83.828 26.488L78.5 13.528H82.268L85.7 22.816L89.18 13.528H92.756Z" fill="white"/>
<path d="M70.512 13C72.144 13 73.456 13.504 74.448 14.512C75.456 15.504 75.96 16.896 75.96 18.688V26.488H72.6V19.144C72.6 18.104 72.336 17.312 71.808 16.768C71.28 16.208 70.56 15.928 69.648 15.928C68.736 15.928 68.008 16.208 67.464 16.768C66.936 17.312 66.672 18.104 66.672 19.144V26.488H63.312V19.144C63.312 18.104 63.048 17.312 62.52 16.768C61.992 16.208 61.272 15.928 60.36 15.928C59.432 15.928 58.696 16.208 58.152 16.768C57.624 17.312 57.36 18.104 57.36 19.144V26.488H54V13.192H57.36V14.8C57.792 14.24 58.344 13.8 59.016 13.48C59.704 13.16 60.456 13 61.272 13C62.312 13 63.24 13.224 64.056 13.672C64.872 14.104 65.504 14.728 65.952 15.544C66.384 14.776 67.008 14.16 67.824 13.696C68.656 13.232 69.552 13 70.512 13Z" fill="white"/>
<path d="M34.1422 5.85781C30.3647 2.08031 25.3422 0 20 0C14.6578 0 9.63531 2.08031 5.85781 5.85781C2.08031 9.63531 0 14.6578 0 20C0 25.3422 2.08039 30.3646 5.85781 34.1422C9.63523 37.9198 14.6578 40 20 40C25.3422 40 30.3647 37.9197 34.1422 34.1422C37.9197 30.3647 40 25.3422 40 20C40 14.6578 37.9196 9.63539 34.1422 5.85781Z" fill="#33CC95"/>
<g clip-path="url(#clip0)">
<path d="M20.5714 8V33.1429" stroke="white" stroke-width="2" stroke-linecap="round" stroke-linejoin="round"/>
<path d="M26.2857 12.5714H17.7143C16.6534 12.5714 15.636 12.9929 14.8859 13.743C14.1357 14.4931 13.7143 15.5106 13.7143 16.5714C13.7143 17.6323 14.1357 18.6497 14.8859 19.3999C15.636 20.15 16.6534 20.5714 17.7143 20.5714H23.4286C24.4894 20.5714 25.5069 20.9929 26.257 21.743C27.0072 22.4932 27.4286 23.5106 27.4286 24.5714C27.4286 25.6323 27.0072 26.6497 26.257 27.3999C25.5069 28.15 24.4894 28.5714 23.4286 28.5714H13.7143" stroke="white" stroke-width="2" stroke-linecap="round" stroke-linejoin="round"/>
</g>
<defs>
<clipPath id="clip0">
<rect width="27.4286" height="27.4286" fill="white" transform="translate(6.85715 6.85714)"/>
</clipPath>
</defs>
</svg>
